<svg width="330" height="50" viewBox="0 0 330 50" fill="none" xmlns="http://www.w3.org/2000/svg">
<rect x="0.5" y="0.5" width="49" height="49" rx="24.5" stroke="#09A494"/>
<path d="M24.5 13C17.6075 13 12 18.6075 12 25.5C12 32.3925 17.6075 38 24.5 38C31.3925 38 37 32.3925 37 25.5C37 18.6075 31.3925 13 24.5 13ZM24.5 14.875C30.3791 14.875 35.125 19.6209 35.125 25.5C35.125 30.2908 31.9731 34.3266 27.625 35.6575V32.4604C27.625 31.2666 26.9371 30.2429 25.9429 29.7334C26.9096 29.5485 27.8072 29.1817 28.5612 28.6637C29.3153 28.1456 29.904 27.4912 30.2785 26.7546C30.6531 26.0181 30.8026 25.2207 30.7148 24.4286C30.6269 23.6366 30.3042 22.8727 29.7734 22.2004C30.0507 21.3471 30.3603 19.8504 29.6245 18.6726C28.2058 18.6726 27.2904 19.6451 26.8535 20.2498C26.1066 20.0044 25.3074 19.8771 24.5 19.875C23.6921 19.8757 22.892 20.0017 22.144 20.2461C21.7061 19.6411 20.7914 18.6726 19.3755 18.6726C18.5311 20.0243 19.0531 21.4778 19.3328 22.071C18.7661 22.7404 18.4108 23.5098 18.2973 24.3131C18.1837 25.1164 18.3154 25.9298 18.681 26.6835C19.0465 27.4372 19.6351 28.1087 20.3962 28.6406C21.1573 29.1724 22.0683 29.5486 23.051 29.7371C22.2347 30.1578 21.6233 30.9213 21.436 31.8477H20.6145C19.8039 31.8477 19.4889 31.5183 19.0508 30.9626C18.6183 30.407 18.1532 30.0337 17.5945 29.8787C17.2932 29.8468 17.0903 30.0759 17.3528 30.2791C18.2397 30.8828 18.3009 31.8709 18.6565 32.5178C18.9802 33.1003 19.6436 33.625 20.3936 33.625H21.375V35.6575C17.0269 34.3266 13.875 30.2908 13.875 25.5C13.875 19.6209 18.6209 14.875 24.5 14.875Z" fill="black"/>
<rect x="70.5" y="0.5" width="49" height="49" rx="24.5" stroke="#09A494"/>
<path d="M102.578 13.0001C102.328 12.9979 102.105 13.1563 102.027 13.3952L99.1855 22.1429H91.1007L88.2592 13.3952C88.1833 13.1653 87.9713 13.0068 87.728 13.0001C87.4847 12.9956 87.2659 13.143 87.1788 13.3706L83.7548 22.509C83.7525 22.509 83.7525 22.5112 83.7503 22.5135L82.036 27.0849C81.9467 27.3259 82.0271 27.596 82.2369 27.7478L94.8038 36.8862L94.806 36.8906C94.8083 36.8906 94.8083 36.8906 94.8083 36.8929C94.815 36.8973 94.8239 36.9018 94.8306 36.9062C94.8395 36.9107 94.8462 36.9174 94.8552 36.9219C94.8574 36.9219 94.8574 36.9241 94.8596 36.9241C94.8596 36.9241 94.8619 36.9263 94.8641 36.9263C94.8663 36.9286 94.8685 36.9308 94.873 36.9308C94.8752 36.933 94.8797 36.9353 94.8819 36.9375C94.8931 36.942 94.9065 36.9487 94.9199 36.9531C94.9199 36.9531 94.9199 36.9531 94.9199 36.9554C94.9333 36.9598 94.9467 36.9643 94.9578 36.9688C94.9601 36.9688 94.9601 36.9688 94.9623 36.971C94.9712 36.9732 94.9802 36.9754 94.9913 36.9799C94.9958 36.9799 95.0002 36.9821 95.0069 36.9821C95.0069 36.9844 95.0069 36.9844 95.0069 36.9821C95.0181 36.9866 95.0293 36.9888 95.0404 36.9911C95.056 36.9933 95.0694 36.9955 95.0851 36.9978C95.1074 36.9978 95.1319 37 95.1543 37C95.1766 36.9978 95.1967 36.9978 95.2168 36.9933C95.2257 36.9933 95.2324 36.9933 95.2413 36.9911C95.2413 36.9911 95.2435 36.9911 95.2458 36.9911C95.2502 36.9888 95.2525 36.9888 95.2569 36.9888C95.2592 36.9888 95.2614 36.9866 95.2659 36.9866C95.2703 36.9844 95.277 36.9844 95.2815 36.9821C95.2904 36.9799 95.2971 36.9777 95.3038 36.9754C95.3083 36.9754 95.3105 36.9754 95.3127 36.9732C95.315 36.9732 95.3172 36.9732 95.3194 36.9732C95.3284 36.9688 95.3395 36.9643 95.3485 36.9621C95.3596 36.9576 95.3685 36.9531 95.3775 36.9487C95.3797 36.9487 95.3797 36.9487 95.3819 36.9464C95.3842 36.9464 95.3864 36.9464 95.3886 36.9442C95.3931 36.942 95.3976 36.9397 95.402 36.9375C95.4154 36.9308 95.4266 36.9241 95.4377 36.9174C95.4422 36.9152 95.4444 36.9129 95.4467 36.9107C95.4489 36.9107 95.4511 36.9085 95.4534 36.9085C95.4623 36.9018 95.4712 36.8973 95.4802 36.8906L95.4846 36.8839L108.052 27.7478C108.259 27.596 108.339 27.3259 108.25 27.0849L106.54 22.5291C106.538 22.5246 106.536 22.5179 106.536 22.5135L103.107 13.3706C103.023 13.1497 102.815 13.0023 102.578 13.0001ZM85.4668 23.2858H90.2704L93.6163 33.5804L85.4668 23.2858ZM100.016 23.2858H104.819L96.6699 33.5804L100.016 23.2858ZM84.4646 23.8617L92.1074 33.5156L83.2592 27.0804L84.4646 23.8617ZM105.822 23.8617L107.027 27.0804L98.1788 33.5156L105.822 23.8617Z" fill="black"/>
<rect x="140.5" y="0.5" width="49" height="49" rx="24.5" stroke="#09A494"/>
<path d="M159.676 14C155.999 14 153 16.9994 153 20.6761V30.3239C153 34.0006 155.999 37 159.676 37H169.324C173.001 37 176 34.0006 176 30.3239V20.6761C176 16.9994 173.001 14 169.324 14H159.676ZM159.676 15.7692H169.324C172.043 15.7692 174.231 17.9531 174.231 20.6761V30.3239C174.231 33.0434 172.047 35.2308 169.324 35.2308H159.676C156.957 35.2308 154.769 33.0469 154.769 30.3239V20.6761C154.769 17.9566 156.953 15.7692 159.676 15.7692ZM171.135 17.5385C170.402 17.5385 169.808 18.1328 169.808 18.8654C169.808 19.598 170.402 20.1923 171.135 20.1923C171.867 20.1923 172.462 19.598 172.462 18.8654C172.462 18.1328 171.867 17.5385 171.135 17.5385ZM164.5 19.3077C161.089 19.3077 158.308 22.0894 158.308 25.5C158.308 28.9106 161.089 31.6923 164.5 31.6923C167.911 31.6923 170.692 28.9106 170.692 25.5C170.692 22.0894 167.911 19.3077 164.5 19.3077ZM164.5 21.0769C166.953 21.0769 168.923 23.0466 168.923 25.5C168.923 27.9534 166.953 29.9231 164.5 29.9231C162.047 29.9231 160.077 27.9534 160.077 25.5C160.077 23.0466 162.047 21.0769 164.5 21.0769Z" fill="black"/>
<rect x="210.5" y="0.5" width="49" height="49" rx="24.5" stroke="#09A494"/>
<path d="M244.154 13.9844C243.829 13.9988 243.526 14.0935 243.26 14.2012C243.01 14.3017 242.056 14.711 240.553 15.3555C239.048 16.0006 237.056 16.8558 234.932 17.7696C230.682 19.5971 225.904 21.6542 223.457 22.7071C223.365 22.7467 223.044 22.8492 222.703 23.1153C222.362 23.3813 222 23.9326 222 24.5469C222 25.0423 222.236 25.5344 222.533 25.8282C222.83 26.122 223.145 26.2671 223.414 26.377C224.391 26.7757 227.422 28.0159 227.994 28.2501C228.196 28.867 229.292 32.2226 229.547 33.045C229.715 33.5877 229.874 33.9276 230.082 34.1973C230.186 34.3322 230.307 34.4504 230.453 34.543C230.512 34.58 230.576 34.6086 230.641 34.6348L230.645 34.6368C230.659 34.6428 230.672 34.653 230.688 34.6583C230.716 34.6683 230.735 34.6695 230.773 34.6778C230.926 34.727 231.08 34.7579 231.217 34.7579C231.802 34.7579 232.16 34.4356 232.16 34.4356L232.182 34.42L235.191 31.8165L238.842 35.2696C238.893 35.3423 239.373 36.0001 240.43 36.0001C241.057 36.0001 241.555 35.6851 241.875 35.3497C242.195 35.0143 242.394 34.6619 242.479 34.2188V34.2169C242.558 33.7982 245.922 16.5274 245.922 16.5274L245.916 16.5508C246.014 16.1013 246.04 15.6827 245.932 15.2696C245.823 14.8565 245.537 14.461 245.182 14.2481C244.827 14.0353 244.479 13.9701 244.154 13.9844ZM243.967 16.0743C243.962 16.1035 243.97 16.0888 243.963 16.1231L243.961 16.1348L243.959 16.1465C243.959 16.1465 240.636 33.1964 240.514 33.8458C240.523 33.7967 240.482 33.8942 240.439 33.9532C240.38 33.9121 240.258 33.8594 240.258 33.8594L240.238 33.838L235.252 29.1212L231.727 32.168L232.775 27.9688C232.775 27.9688 239.332 21.1822 239.727 20.7872C240.045 20.4712 240.111 20.361 240.111 20.252C240.111 20.106 240.035 20.0001 239.865 20.0001C239.712 20.0001 239.506 20.1488 239.396 20.2188C237.963 21.1324 231.672 24.7992 228.852 26.4395C228.403 26.2561 225.29 24.9815 224.234 24.5508C224.242 24.5473 224.24 24.5486 224.248 24.545C226.696 23.4918 231.472 21.4347 235.721 19.6075C237.845 18.6939 239.839 17.838 241.342 17.1934C242.822 16.5587 243.85 16.1219 243.967 16.0743Z" fill="#212121"/>
<rect x="280.5" y="0.5" width="49" height="49" rx="24.5" stroke="#09A494"/>
<g clip-path="url(#clip0_1_116)">
<path d="M304.429 15.6616C302.876 15.6469 301.704 15.7202 300.723 16.2255C300.32 16.4306 300.034 16.6943 299.814 17.0019C299.697 17.1557 299.587 17.2949 299.536 17.6171C299.507 17.771 299.485 18.0273 299.646 18.3056C299.807 18.5913 300.151 18.7817 300.386 18.8183C300.562 18.8403 300.935 18.9941 301.001 19.082C301.155 19.3017 301.213 19.4629 301.235 19.5507C301.257 19.6386 301.25 19.58 301.25 19.58V19.6679C301.25 19.6679 301.309 20.5908 301.272 21.5429C301.25 22.0117 301.206 22.5024 301.133 22.832C301.06 23.1616 300.876 23.2421 301.14 23.0883C300.957 23.1982 301.023 23.2421 300.796 23.125C300.562 23.0151 299.954 22.5024 299.155 21.0669C298.357 19.624 297.778 18.8769 297.646 18.7158C297.595 18.5693 297.471 18.269 297.046 17.9394C296.497 17.5146 295.933 17.5073 295.933 17.5073L295.881 17.5H291.787C291.787 17.5 291.553 17.5073 291.282 17.5659C291.011 17.6245 290.623 17.6904 290.256 18.1445H290.249C289.875 18.6206 289.941 19.0527 289.971 19.3164C290.007 19.5874 290.088 19.7998 290.088 19.7998L290.103 19.8437L290.125 19.8877C290.125 19.8877 293.252 26.56 296.987 30.625C300.496 34.4482 304.561 34.375 304.561 34.375H306.868L306.919 34.3676C306.919 34.3676 307.659 34.4043 308.281 33.7085C308.596 33.3496 308.669 33.0127 308.706 32.7636C308.75 32.5073 308.75 32.3022 308.75 32.3022V32.3608C308.75 32.3608 308.779 31.8774 308.911 31.372C308.977 31.123 309.072 30.874 309.16 30.7348C309.204 30.6543 309.204 30.6762 309.219 30.6543C309.38 30.7714 309.644 31.0424 309.922 31.3867C310.493 32.0678 311.138 33.0127 312.039 33.6645C312.69 34.1259 313.306 34.331 313.774 34.4043C314.089 34.4555 314.316 34.4482 314.47 34.4336L317.656 34.375H317.686C317.686 34.375 318.345 34.3603 319.004 33.9428C319.326 33.7378 319.7 33.3642 319.824 32.8295C319.956 32.2949 319.81 31.7163 319.502 31.1816C319.604 31.3647 319.48 31.123 319.385 30.9326C319.29 30.7421 319.143 30.4858 318.923 30.1635C318.499 29.5337 317.795 28.6474 316.631 27.5195C316.082 26.9921 315.73 26.6992 315.51 26.4941C315.576 26.3989 315.583 26.3916 315.833 26.0986C316.228 25.6372 316.807 24.956 317.539 23.9379C318.418 22.7075 319.055 21.7041 319.465 20.8691C319.875 20.0415 320.205 19.353 319.839 18.5034C319.641 18.042 319.29 17.8662 319.033 17.7563C318.77 17.6464 318.535 17.6025 318.315 17.5659C317.883 17.5 317.502 17.5 317.502 17.5L313.789 17.5293C313.679 17.5073 313.254 17.4267 312.705 17.7783C312.163 18.1152 312.039 18.4741 312.009 18.5839C311.921 18.7085 311.306 19.58 310.449 21.1035C309.585 22.6416 308.999 23.059 308.926 23.0957C308.904 23.0737 308.948 23.081 308.845 23.0224C308.801 22.9858 308.757 22.9565 308.721 22.561C308.691 22.1655 308.728 21.5429 308.728 20.8105C308.728 19.2358 308.867 18.4155 308.787 17.6318C308.75 17.2363 308.589 16.7529 308.237 16.4306C307.886 16.1157 307.505 15.9985 307.109 15.896C306.487 15.7421 305.645 15.6762 304.429 15.6616ZM304.414 17.5366C305.549 17.5512 306.348 17.6391 306.641 17.7124C306.89 17.7783 306.926 17.8076 306.919 17.7929C306.919 17.8076 306.919 17.8003 306.919 17.8222C306.948 18.1372 306.853 19.1479 306.853 20.8105C306.853 21.4624 306.802 22.0922 306.853 22.7221C306.904 23.352 307.131 24.1211 307.798 24.5752H307.805C307.725 24.5239 308.647 25.2124 309.526 24.8974C310.405 24.5752 311.101 23.7695 312.09 22.019C312.954 20.4663 313.591 19.5947 313.591 19.5947L313.65 19.5068L313.694 19.4189C313.694 19.4189 313.679 19.4116 313.694 19.4043L317.502 19.375C317.502 19.375 317.766 19.375 318.022 19.4189C318.03 19.4189 318.037 19.4189 318.044 19.4189C318.008 19.4336 318.037 19.5288 317.781 20.0488C317.451 20.7153 316.858 21.6674 316.016 22.8466C315.32 23.8061 314.8 24.4287 314.412 24.8828C314.023 25.3295 313.73 25.542 313.54 26.1279C313.445 26.4135 313.467 26.8383 313.606 27.124C313.738 27.4023 313.899 27.5561 314.06 27.7099C314.382 28.0175 314.763 28.3178 315.32 28.8671C316.411 29.9218 317.026 30.6982 317.371 31.2109C317.546 31.4746 317.649 31.6577 317.715 31.7895C317.781 31.9213 317.737 31.8701 317.883 32.1191C318.008 32.3462 317.986 32.3755 317.986 32.3608C317.861 32.434 317.546 32.5 317.539 32.5L314.353 32.5586L314.265 32.5805C314.265 32.5805 314.272 32.5879 314.075 32.5586C313.87 32.5219 313.547 32.434 313.137 32.1411C312.632 31.7822 311.995 30.9472 311.365 30.1855C311.057 29.812 310.742 29.4458 310.347 29.1528C309.951 28.8598 309.329 28.5888 308.691 28.8012C308.142 28.977 307.783 29.3798 307.556 29.7534C307.329 30.1342 307.197 30.5297 307.095 30.8886C306.904 31.6137 306.875 32.2656 306.875 32.2656V32.3242C306.875 32.3242 306.875 32.3681 306.86 32.434C306.824 32.4487 306.772 32.4853 306.743 32.5H304.502C304.502 32.5 301.404 32.6611 298.364 29.3652C295.112 25.8129 292.219 19.873 291.978 19.375H295.75C295.786 19.3896 295.918 19.4409 295.903 19.4336C295.815 19.3603 295.947 19.5214 295.947 19.5214L296.006 19.6606L296.108 19.7778C296.108 19.7778 296.687 20.4809 297.515 21.9751C298.401 23.5791 299.148 24.414 299.983 24.8169C300.818 25.2197 301.697 24.934 302.07 24.7216C302.766 24.3188 302.847 23.7548 302.964 23.2348C303.081 22.7148 303.118 22.1582 303.14 21.6162C303.184 20.5761 303.125 19.6899 303.125 19.624C303.118 19.602 303.118 19.3457 303.044 19.0673C302.964 18.7817 302.817 18.4082 302.539 18.0127C302.422 17.8515 302.312 17.9321 302.187 17.8149C302.708 17.6684 303.264 17.5219 304.414 17.5366Z" fill="#212121"/>
</g>
<defs>
<clipPath id="clip0_1_116">
<rect width="30" height="30" fill="white" transform="translate(290 10)"/>
</clipPath>
</defs>
</svg>
